<?xml version="1.0" encoding="UTF-8"?>
<svg xmlns="http://www.w3.org/2000/svg" version="1.1" viewBox="0 0 520 200">
  <path fill="#fff"
    d="M513.6,184.3c-.9-2.6-2.4-4.4-4.4-5.5-2.2,1.3-4.2,2.3-6,3-1.9.7-3.5,1-5,1-4.5,0-7.4-1.7-8.6-5.2-1.2-3.5-1-9.1.7-16.8l3.7-17.2c2.5-11.9,1.6-21.3-2.9-28.4-4.4-7.1-11.6-10.6-21.6-10.6s-1.9,0-2.8.2c16.8-23.9,27.3-45.5,31.4-65,2.5-11.7,1.8-21.3-2.2-28.6C491.8,3.9,484.9.1,475,0c-10.8-.1-19.8,3.4-27,10.6-7.2,7.2-12.2,17.5-15,30.8l-21.8,102.6c-8.9,12.5-18.1,22.2-27.5,28.9-9.4,6.7-18.9,10.1-28.5,10.1s-.2,0-.2,0c0,0,0,0-.2,0-9.2,0-15.9-2.2-20.2-6.6,12.9-6.8,23.2-14.1,30.8-21.8,7.6-7.7,12.4-15.9,14.2-24.4s1-10.9-.7-15.4c-1.7-4.5-4.5-8.1-8.5-10.8-4-2.7-8.8-4-14.5-4s-13.3,1.9-19.5,5.6c-6.2,3.7-11.5,8.8-16,15.1-4.5,6.3-7.6,13.6-9.3,21.7-2.3,10.9-2.4,20.8-.3,29.6-8.1,4.1-15.5,7-22.1,8.6-6.6,1.6-13,2.4-19.3,2.4-4.6,0-8.5-1.1-11.6-3.3-3.1-2.2-5.2-5.5-6.1-9.9-.2-.9-.3-1.9-.4-2.8,18.2-18,33.4-37,45.4-57,12.1-20,20.1-39.4,24.1-58.2s3.3-28.8-.3-38C316.6,4.6,309.6,0,299.2,0s-10.2,1.1-15,3.2c-4.8,2.1-9.2,5.6-13.1,10.4-2.7,3.2-5.1,6.8-7.2,10.7-2.1,3.9-4.1,8.7-6.1,14.3-2,5.6-4,12.5-6,20.8-2,8.3-4.3,18.3-6.8,30.2l.2.2h-.2c-3.8,17.9-6.7,32.4-8.6,43.6-1.9,11.2-3,20.4-3.2,27.6-7.2,6.1-15.4,11.3-24.7,15.6-9.3,4.3-18.4,6.4-27.4,6.4s0,0-.1,0c0,0,0,0,0,0-4.8,0-8.3-1.2-10.5-3.6-2.2-2.4-3.5-5.5-3.7-9.2-.2-3.6.2-8.4,1-14.4.8-6,2.4-14.7,4.9-26.2,10.5-4,20.2-9.7,29.2-17.1,9-7.4,16.8-16.2,23.3-26.5,6.5-10.3,11.1-21.7,13.8-34.2,3.4-16.1,3.3-28.8-.3-38C234.8,4.6,227.8,0,217.4,0s-10.2,1.1-15,3.2c-4.8,2.1-9.2,5.6-13.1,10.4-2.7,3.2-5.1,6.8-7.2,10.7-2.1,3.9-4.1,8.7-6.1,14.3-2,5.6-4,12.5-6,20.8-2,8.3-4.3,18.3-6.8,30.2l-5.8,27.2c-5.5,1.5-10.9,2.6-16,3.4-3.4.5-6.7.9-10,1-2.6-6.1-6.5-11-11.8-14.7-6.1-4.3-13.7-6.5-22.6-6.5s-17.4,2.2-25.5,6.5c-8.1,4.3-14.9,10.2-20.7,17.7-5.7,7.5-9.6,16-11.6,25.6s-1.1,6.6-1.3,9.8c-4.4,7.1-9.2,12.7-14.3,16.9-5.1,4.2-9.8,6.3-14.2,6.3s-7.8,2.9-9,8.6-.4,4.6.3,6.2c.7,1.6,2,2.4,3.7,2.4,13.7,0,26.1-6.6,37.2-19.8,3,6.1,7.4,11,13.2,14.5,5.8,3.5,12.8,5.3,21,5.3s17.6-2.2,25.5-6.5,14.7-10.3,20.4-17.9c5.7-7.6,9.5-16.2,11.6-25.8s1.4-8.9,1.4-13c1.6-.2,3.2-.3,4.9-.6,4.9-.7,9.7-1.5,14.4-2.6-1.7,8.4-2.9,15.2-3.8,20.5-.9,5.3-1.4,9.5-1.5,12.8-.2,3.3-.2,6.2,0,8.9.5,7.7,3,13.7,7.5,17.9s11.2,6.3,20.2,6.3,0,0,.1,0c0,0,0,0,0,0,10.7,0,20.8-1.9,30.4-5.6s18.9-8.8,27.8-15.2c.2.5.3,1.1.4,1.8,1.5,5.5,4.8,10,10,13.6,5.2,3.6,11.7,5.4,19.6,5.4s0,0,.1,0c0,0,0,0,0,0,15.9,0,33.3-4.7,52.4-14,3.1,4.4,7.5,7.8,13.2,10.3,5.7,2.5,12.3,3.7,19.8,3.7,0,0,0,0,0,0h0s0,0,0,0c9.2,0,18.5-2.1,27.9-6.2,9.4-4.1,18.3-10.5,26.6-19l-4.8,22.4c3,.9,6,1.4,9.1,1.4s3-.1,4.7-.4c1.7-.3,3.2-.6,4.6-1l7.4-34.6c1.8-8,4.7-15.1,8.5-21.2,3.8-6.1,8.3-11,13.3-14.5,5-3.5,10.2-5.3,15.5-5.3s9.3,1.9,11.5,5.7c2.2,3.8,2.6,9.1,1.1,15.9l-4.5,21.2c-2.4,11.3-1.7,20.1,2.1,26.3,3.8,6.2,10.5,9.3,20.1,9.3s7.6-.7,11.3-2.2c3.6-1.5,6.8-3.4,9.4-5.8.7-2.5.5-5.1-.4-7.7ZM180.7,90.8c2.9-13.5,5.3-24.3,7.4-32.6,2.1-8.3,4.1-14.8,6-19.7,1.9-4.9,3.9-8.9,5.9-12.1,4-6.1,8.6-9.2,13.8-9.2s7.5,2.9,8.8,8.8c1.4,5.9.9,14.3-1.5,25.4s-8.6,26.5-16.9,37.1c-8.3,10.6-17.6,18.3-27.9,23.1l4.4-20.8ZM101.6,173.8c-6.4,6-13.9,9-22.4,9s-14.7-3-18.6-9c-3.9-6-4.8-13.9-2.7-23.6s6.4-17.8,13-23.9c6.6-6.1,14-9.1,22.4-9.1s14.5,3,18.4,9c3.9,6,4.8,13.9,2.7,23.6-2.1,10-6.4,18-12.8,24ZM252,145c.8-5.9,2.1-13.1,3.8-21.8,1.7-8.7,3.9-19.5,6.7-32.4s5.3-24.3,7.4-32.6c2.1-8.3,4.1-14.8,6-19.7,1.9-4.9,3.9-8.9,5.9-12.1,4-6.1,8.6-9.2,13.8-9.2s7.6,3,8.9,8.9c1.3,5.9.7,14.4-1.6,25.5-3.1,14.8-9,30-17.5,45.5-8.5,15.5-19.6,31.5-33.4,47.9ZM328.6,163c-2.1-5.3-2.2-12.4-.3-21.2,1.6-7.3,4.6-13.4,9.1-18.1,4.5-4.7,9.5-7.1,14.8-7.1s6.9,1.2,8.6,3.6c1.8,2.4,2.2,5.7,1.3,10-2.5,11.6-13.7,22.5-33.6,32.8ZM464.5,78c-7.9,13.9-18.1,27.9-30.4,42l16.7-78.8c3.5-16.4,10.1-24.6,19.8-24.6s7.8,2,9.4,5.9c1.6,3.9,1.7,9.6,0,17.1-2.5,11.7-7.7,24.5-15.7,38.4Z" />
</svg>